<svg width="531" height="522" viewBox="0 0 531 522" fill="none" xmlns="http://www.w3.org/2000/svg">
<path d="M30.6001 366.6H79.5001L111.5 477.4H73.7001L69.5001 456.1H40.8001L36.3001 477.4H0.100098L30.6001 366.6ZM65.7001 436.3L55.3001 387.9L44.3001 436.3H65.7001ZM161.4 480C146.3 480 133.5 477.2 123.1 471.6L131.1 446.6C142.2 450.6 152 452.6 160.7 452.6C165.4 452.6 168.9 452.1 171 451C173.3 449.8 174.4 448.1 174.4 445.8C174.4 444.3 173.8 443 172.6 441.9C171.4 440.7 169.1 439.4 165.5 438C162 436.6 156.6 434.9 149.6 432.8C140.9 430.2 134.1 426 129.3 420.2C124.5 414.3 122.1 407.5 122.1 399.9C122.1 388.1 126 379.2 133.7 373.2C141.5 367.1 152.1 364 165.3 364C172.2 364 178.9 364.8 185.6 366.3C192.3 367.7 198.2 369.8 203.3 372.6L194.6 396.9C188.6 394.9 183.3 393.4 178.8 392.6C174.4 391.6 170.1 391.2 165.9 391.2C158.8 391.2 155.3 393.1 155.3 397C155.3 398.9 156.4 400.6 158.7 402C161.1 403.3 165.8 405 173 407C184.3 410 192.8 414.6 198.6 420.8C204.4 426.9 207.3 434.3 207.3 442.9C207.3 454.8 203.4 464 195.7 470.4C188 476.8 176.5 480 161.4 480ZM244.5 391.1H221.5V366.6H305.1V391.1H282.1V477.4H244.6V391.1H244.5ZM325 366.6H402.8V391.1H364.2V411.2H399.5V431.5H364.2V452.9H402.8V477.4H325V366.6ZM425.6 366.6H458L502.1 426.3V366.6H530.9V477.4H498.7L454.3 419.8V477.4H425.6V366.6V366.6Z" fill="#28A745"/>
<path d="M34.6 521.4H29.1V510.4C29.1 509.2 29 508.3 28.7 507.5C28.5 506.7 27.9 506 27.1 505.5C26.3 505 25.2 504.7 23.8 504.4C22.4 504.2 20.5 504.1 18.2 504.1C15.6 504.1 13.5 504.2 11.9 504.5C10.3 504.7 9 505.1 8 505.6C7.1 506 6.4 506.6 6 507.2C5.6 507.8 5.5 508.6 5.5 509.3V521.3H0V501.9H5.5V505C5.5 505 5.6 504.9 5.8 504.7C6 504.5 6.20001 504.3 6.60001 504C7.00001 503.7 7.5 503.4 8.2 503.1C8.9 502.8 9.8 502.5 10.8 502.3C11.9 502 13.2 501.8 14.7 501.7C16.2 501.5 18 501.4 20.1 501.4C22.1 501.4 23.9 501.5 25.4 501.6C26.9 501.7 28.2 502 29.3 502.3C30.4 502.6 31.2 503 31.9 503.4C32.6 503.8 33.1 504.3 33.5 504.9C33.8 504.6 34.3 504.2 35 503.8C35.7 503.4 36.6 503 37.8 502.6C39 502.2 40.6 501.9 42.4 501.7C44.2 501.4 46.5 501.3 49.1 501.3C51.3 501.3 53.1 501.4 54.7 501.6C56.3 501.8 57.6 502 58.7 502.4C59.8 502.7 60.6 503.2 61.3 503.7C62 504.2 62.5 504.8 62.8 505.5C63.2 506.2 63.4 506.9 63.5 507.7C63.6 508.5 63.7 509.4 63.7 510.4V521.4H58.2V510.4C58.2 509.2 58.1 508.3 57.8 507.5C57.6 506.7 57 506 56.2 505.5C55.4 505 54.3 504.7 52.9 504.4C51.5 504.2 49.6 504.1 47.3 504.1C44.7 504.1 42.6 504.2 41 504.5C39.4 504.7 38.1 505.1 37.1 505.6C36.2 506 35.5 506.6 35.1 507.2C34.7 507.8 34.6 508.6 34.6 509.3V521.4V521.4ZM171.4 521.8C167.8 521.8 164.7 521.7 162.1 521.4C159.6 521.1 157.5 520.6 155.9 519.8C154.3 519.1 153.2 518.1 152.4 516.9C151.7 515.7 151.3 514.1 151.3 512.3C151.3 510.2 151.7 508.4 152.4 507C153.1 505.6 154.3 504.5 155.9 503.7C157.5 502.9 159.6 502.3 162.1 502C164.6 501.7 167.7 501.5 171.4 501.5C174 501.5 176.2 501.6 178.1 501.8C180 502 181.6 502.3 183 502.8C184.4 503.2 185.5 503.7 186.3 504.3C187.2 504.9 187.8 505.5 188.3 506.2C188.8 506.9 189.1 507.6 189.3 508.5C189.5 509.4 189.6 510.3 189.6 511.3L189.1 512.4H156.8C156.8 513.9 157 515.1 157.5 516.1C158 517 158.8 517.7 159.9 518.2C161 518.6 162.5 518.9 164.4 519C166.3 519.1 168.5 519.2 171.3 519.2C173.8 519.2 175.9 519.2 177.5 519.1C179.1 519 180.5 518.8 181.4 518.6C182.4 518.4 183 518 183.4 517.6C183.8 517.2 184 516.6 184 515.9H189.5C189.5 516.9 189.2 517.8 188.6 518.6C188 519.3 187 519.9 185.6 520.4C184.2 520.9 182.3 521.2 180 521.4C177.7 521.7 174.8 521.8 171.4 521.8ZM171.4 504.2C169.6 504.2 168 504.2 166.5 504.3C165.1 504.3 163.8 504.4 162.8 504.6C161.7 504.7 160.8 505 160.1 505.3C159.3 505.6 158.7 505.9 158.3 506.3C157.8 506.7 157.5 507.2 157.3 507.9C157.1 508.6 157 509.4 157 510.4H184.3C184.3 509.1 184.1 508.1 183.6 507.3C183.1 506.5 182.4 505.9 181.4 505.4C180.4 504.9 179.1 504.6 177.5 504.4C175.6 504.2 173.7 504.2 171.4 504.2ZM310 512.8C310 514.5 309.8 515.8 309.3 516.9C308.8 518 308.1 518.9 307 519.5C305.9 520.2 304.5 520.6 302.8 520.9C301.1 521.2 298.9 521.3 296.4 521.3C293.9 521.3 291.8 521.2 290.2 521C288.5 520.8 287.2 520.4 286.1 519.9C285.1 519.4 284.3 518.6 283.9 517.7C283.4 516.8 283.2 515.7 283.2 514.3V504.6H276.5V501.9H283.2V496.6H288.7V501.9H309.2V504.6H288.7V514.3C288.7 515.4 288.8 516.2 289.1 516.8C289.4 517.4 289.8 517.8 290.4 518.1C291 518.4 291.8 518.5 292.8 518.6C293.8 518.6 295 518.7 296.5 518.7C297.6 518.7 298.6 518.7 299.5 518.7C300.4 518.7 301.2 518.6 301.9 518.5C302.6 518.4 303.2 518.2 303.6 518C304.1 517.8 304.5 517.4 304.7 517C305 516.6 305.2 516 305.4 515.3C305.5 514.6 305.6 513.8 305.6 512.8H310V512.8ZM429.4 518.7C429.3 518.8 428.9 519.2 428.1 519.7C427.5 520.1 426.8 520.5 425.8 520.8C424.9 521.1 423.6 521.3 422 521.5C420.4 521.7 418.4 521.8 415.8 521.8C412.4 521.8 409.4 521.7 407 521.5C404.6 521.3 402.6 521 401.1 520.6C399.6 520.2 398.4 519.6 397.7 518.9C397 518.2 396.6 517.4 396.6 516.5C396.6 515.5 396.8 514.7 397.2 514C397.6 513.3 398.2 512.7 398.9 512.3C399.7 511.8 400.6 511.5 401.6 511.2C402.7 510.9 403.9 510.7 405.2 510.6C406.6 510.5 408 510.4 409.7 510.3C411.3 510.3 413 510.2 414.8 510.2C417.4 510.2 419.6 510.3 421.3 510.4C423 510.5 424.5 510.7 425.6 510.9C426.7 511.1 427.6 511.3 428.1 511.5C428.7 511.7 429.1 511.9 429.3 512.1C429.3 510.8 429.2 509.8 429 508.9C428.8 508 428.5 507.3 428.1 506.7C427.7 506.1 427.2 505.6 426.5 505.3C425.9 504.9 425.1 504.7 424.1 504.5C423.2 504.3 422.1 504.2 420.8 504.2C419.6 504.1 418.1 504.1 416.5 504.1C414 504.1 411.9 504.1 410.3 504.2C408.7 504.3 407.3 504.4 406.4 504.6C405.4 504.8 404.8 505.1 404.4 505.5C404 505.9 403.8 506.4 403.8 507H398.3C398.3 506 398.6 505.1 399.2 504.4C399.8 503.7 400.8 503.1 402.3 502.7C403.7 502.3 405.6 501.9 407.9 501.7C410.2 501.5 413.1 501.4 416.5 501.4C419.8 501.4 422.6 501.6 425 501.9C427.3 502.2 429.2 502.8 430.6 503.6C432 504.4 433.1 505.5 433.7 506.9C434.3 508.3 434.7 510 434.7 512.2V521.4H429.2V518.7H429.4ZM416.8 519.2C419.2 519.2 421.2 519.1 422.8 519C424.4 518.9 425.7 518.7 426.7 518.4C427.7 518.1 428.4 517.8 428.8 517.4C429.2 517 429.4 516.5 429.4 516C429.4 515.5 429.2 515 428.7 514.6C428.2 514.2 427.4 513.9 426.3 513.7C425.2 513.5 423.7 513.3 421.8 513.2C419.9 513.1 417.7 513 414.9 513C412.2 513 410 513 408.3 513.1C406.6 513.2 405.3 513.3 404.4 513.5C403.5 513.7 402.9 514 402.6 514.4C402.3 514.8 402.1 515.3 402.1 516C402.1 516.7 402.3 517.2 402.6 517.7C402.9 518.1 403.6 518.4 404.6 518.7C405.6 518.9 407.1 519.1 409 519.2C411 519.2 413.6 519.2 416.8 519.2ZM525.4 495.5H530.9V521.4H525.4V495.5Z" fill="#28A745"/>
<path d="M315 227.8V217H307.3C306.8 213.4 305.8 210 304.5 206.7L311.2 202.8L305.8 193.5L299 197.4C296.8 194.6 294.2 192.1 291.4 190.1L295.4 183.2L286.1 177.8L282.1 184.7C278.9 183.4 275.5 182.5 271.9 182.1V174H261.2V182.1C257.6 182.5 254.3 183.5 251.2 184.8L247.1 177.7L237.8 183.1L241.9 190.2C239.2 192.4 236.7 194.8 234.6 197.5L227.6 193.4L222.2 202.7L229.2 206.8C227.9 209.9 226.9 213.4 226.5 216.8H218.4V227.6H226.4C226.8 231.2 227.7 234.6 229 237.7L222.2 241.6L227.6 250.9L234.3 247C236.5 249.8 238.9 252.4 241.8 254.6L237.9 261.2L247.2 266.6L251 260C254.2 261.4 257.7 262.4 261.4 262.8V270.4H272V263C275.7 262.6 279.1 261.6 282.5 260.3L286.2 266.7L295.5 261.3L291.8 254.9C294.7 252.7 297.2 250.1 299.5 247.2L305.9 250.9L311.3 241.6L304.8 237.8C306.1 234.6 307.1 231 307.5 227.4L315 227.8ZM266.8 237.1C258.8 237.1 252.3 230.6 252.3 222.6C252.3 214.6 258.8 208.1 266.8 208.1C274.8 208.1 281.3 214.6 281.3 222.6C281.3 230.8 274.8 237.1 266.8 237.1Z" fill="#28A745"/>
<path d="M228.5 178V114.8L173 174.2V302H228.5V266.8C215.3 255.5 207.1 238.5 207.9 220C208.5 203.3 216.4 188.3 228.5 178Z" fill="#28A745"/>
<path d="M237.5 59.4V171.6C246.1 166.6 256.1 163.7 266.7 163.7C276.2 163.7 285.2 166 293 170.1V114.7V0L237.5 59.4Z" fill="#28A745"/>
<path d="M266.3 281.1C255.8 281 246 278.2 237.6 273.2V302H293.1V274.7C285 278.8 275.9 281.2 266.3 281.1Z" fill="#28A745"/>
<path d="M301.5 72V175.4C315.1 185.6 324.2 201.3 325.3 218.8C326.5 238.9 316.9 257.7 301.5 269.2V277.9V302H357V296V278.1V265.4V159.6V131.5L301.5 72Z" fill="#28A745"/>
<path d="M64 334H466" stroke="#28A745" stroke-width="2"/>
</svg>
