<?xml version="1.0" encoding="utf-8"?>
<!-- Generator: Adobe Illustrator 16.2.0, SVG Export Plug-In . SVG Version: 6.00 Build 0)  -->
<!DOCTYPE svg PUBLIC "-//W3C//DTD SVG 1.1//EN" "http://www.w3.org/Graphics/SVG/1.1/DTD/svg11.dtd">
<svg version="1.1" id="Слой_1" xmlns="http://www.w3.org/2000/svg" xmlns:xlink="http://www.w3.org/1999/xlink" x="0px" y="0px"
	 width="80px" height="80px" viewBox="0 0 80 80" enable-background="new 0 0 80 80" xml:space="preserve">
<path fill="#937DE2" d="M72.467,43.765c0,19.46-16,35.235-35.734,35.235c-4.842,0-9.457-0.949-13.666-2.67
	C11.562,71.631,3.088,61.176,1.336,48.607C1.113,47.025,1,45.407,1,43.765C1,24.303,16.998,8.528,36.733,8.528
	C56.467,8.528,72.467,24.303,72.467,43.765z"/>
<path fill="#7570D6" d="M36.733,8.528c-1.89,0-3.744,0.146-5.554,0.424c17.098,2.631,30.181,17.214,30.181,34.813
	c0,17.596-13.081,32.179-30.178,34.811C32.991,78.854,34.844,79,36.732,79c19.734,0,35.734-15.775,35.734-35.235
	C72.467,24.303,56.467,8.528,36.733,8.528z"/>
<path fill="#FDD7BD" d="M76.928,41.16L56.522,54.484c-1.454,0.949-3.215,1.325-4.937,1.055c-1.725-0.271-3.489,0.1-4.948,1.051
	l-2.729,1.786L28.616,36.146l3.752-15.982c0.292-1.245,0.436-2.506,0.436-3.762c0-3.25-0.964-6.458-2.812-9.211
	c-0.455-0.678-0.672-1.443-0.672-2.2c0-1.292,0.636-2.561,1.812-3.328c1.584-1.035,3.684-0.843,5.048,0.462l2.431,2.321
	c2.78,2.659,4.924,5.897,6.271,9.479l1.317,3.499l13.573-8.843c2.168-1.416,5.1-0.796,6.485,1.393
	c1.335,2.109,0.648,4.896-1.454,6.269c-0.024,0.017-0.026,0.043-0.02,0.063c0.012,0.022,0.039,0.037,0.067,0.025
	c0.536-0.204,1.097-0.302,1.652-0.302c0.89,0,1.769,0.252,2.523,0.732c0.519,0.331,0.979,0.771,1.341,1.311
	c0.701,1.044,0.91,2.268,0.68,3.406c-0.358,1.792-1.68,2.716-1.94,2.89c-0.044,0.03-0.056,0.09-0.025,0.136
	c0,0.001,0.002,0.003,0.004,0.003c0.029,0.041,0.088,0.052,0.13,0.025c0.37-0.088,0.746-0.131,1.124-0.131
	c0.919,0,1.833,0.258,2.61,0.747c0.525,0.331,0.99,0.769,1.351,1.306c1.41,2.101,0.827,4.932-1.306,6.324
	c-0.053,0.035-0.105,0.07-0.157,0.104c-0.03,0.024-0.039,0.062-0.023,0.088c0.002,0.007,0.011,0.014,0.017,0.017
	c0.024,0.019,0.061,0.021,0.093-0.003c1.323-0.445,2.765-0.243,3.925,0.498c0.534,0.338,1.009,0.793,1.384,1.352
	C79.642,36.937,79.057,39.768,76.928,41.16z"/>
<path fill="#87DBFF" d="M44.104,62.594l-8.61,5.621L23.067,76.33C11.562,71.631,3.088,61.177,1.336,48.607l14.422-9.418l8.78-5.734
	c1.011-0.661,2.375-0.386,3.044,0.612L44.725,59.59C45.394,60.588,45.115,61.931,44.104,62.594z"/>
<path fill="#6FC7FF" d="M44.104,62.594l-8.609,5.621L15.758,39.189l8.78-5.734c1.011-0.661,2.375-0.386,3.044,0.612L44.725,59.59
	C45.394,60.588,45.115,61.931,44.104,62.594z"/>
<path fill="#FAC5AA" d="M69.025,16.761l-6.79,3.583c-0.963,0.507-2.158,0.242-2.806-0.622l5.353-3.416
	c0.012,0.022,0.039,0.037,0.067,0.025c0.536-0.204,1.097-0.303,1.653-0.303C67.392,16.029,68.271,16.281,69.025,16.761z"/>
<path fill="#FAC5AA" d="M72.948,25.147l-6.643,3.502c-0.963,0.508-2.157,0.245-2.805-0.62l5.353-3.416l0.23-0.107
	c0.029,0.04,0.089,0.052,0.131,0.025c0.37-0.088,0.746-0.131,1.123-0.131C71.257,24.401,72.171,24.659,72.948,25.147z"/>
<path fill="#FAC5AA" d="M76.848,33.482l-5.85,3.086c-0.962,0.507-2.155,0.242-2.807-0.623l4.639-2.959
	c0.023,0.019,0.061,0.021,0.092-0.003C74.246,32.539,75.687,32.741,76.848,33.482z"/>
</svg>
