<?xml version="1.0" encoding="utf-8"?>
<!-- Generator: Adobe Illustrator 16.2.0, SVG Export Plug-In . SVG Version: 6.00 Build 0)  -->
<!DOCTYPE svg PUBLIC "-//W3C//DTD SVG 1.1//EN" "http://www.w3.org/Graphics/SVG/1.1/DTD/svg11.dtd">
<svg version="1.1" id="Слой_1" xmlns="http://www.w3.org/2000/svg" xmlns:xlink="http://www.w3.org/1999/xlink" x="0px" y="0px"
	 width="80px" height="80px" viewBox="0 0 80 80" enable-background="new 0 0 80 80" xml:space="preserve">
<path fill="#547580" d="M40,79c21.539,0,39-17.461,39-39S61.539,1,40,1S1,18.461,1,40S18.461,79,40,79z"/>
<path fill="#84B5CB" d="M40,73.62c18.568,0,33.62-15.052,33.62-33.62S58.568,6.379,40,6.379S6.379,21.432,6.379,40
	S21.432,73.62,40,73.62z"/>
<path fill="#E64C3C" d="M52.398,34.621l14.673,25.296l2.905,5.029l2.649,4.586l-5.313-1.694l-5.93-1.909l-2.099-0.673l-0.578,2.677
	l-1.548,7.087l-0.846,3.927l-1.628-2.811l-2.716-4.721L35.966,43.792"/>
<path fill="#E64C3C" d="M26.552,36.208L12.929,59.917l-2.905,5.029l-2.649,4.586l5.312-1.694l5.931-1.909l2.098-0.673l0.578,2.677
	l1.546,7.087l0.848,3.927l1.627-2.811l2.717-4.721L42.986,45.38"/>
<path fill="#C03A2B" d="M38.069,53.73l-0.005-0.008c-0.345-0.546-0.905-0.92-1.541-1.03s-1.289,0.053-1.797,0.449l-0.002,0.002
	c-0.617,0.483-1.438,0.615-2.176,0.351c-0.737-0.265-1.286-0.892-1.453-1.657l0,0c-0.137-0.63-0.534-1.173-1.094-1.493
	c-0.56-0.319-1.229-0.386-1.84-0.183l-0.009,0.002c-0.741,0.25-1.558,0.098-2.16-0.401s-0.903-1.273-0.796-2.048l0.001-0.006
	c0.091-0.638-0.097-1.283-0.514-1.772c-0.417-0.49-1.024-0.776-1.668-0.79h-0.002c-0.781-0.012-1.499-0.431-1.895-1.104
	s-0.411-1.505-0.041-2.193l0.003-0.005c0.306-0.564,0.354-1.232,0.132-1.833c-0.223-0.602-0.694-1.078-1.293-1.307l-0.004-0.002
	c-0.729-0.277-1.26-0.918-1.397-1.686c-0.137-0.769,0.139-1.553,0.727-2.066l0.002-0.002c0.484-0.421,0.762-1.031,0.762-1.672
	c0-0.642-0.278-1.251-0.762-1.672l-0.003-0.002c-0.588-0.513-0.864-1.297-0.726-2.065s0.667-1.409,1.397-1.686l0.005-0.002
	c0.599-0.229,1.07-0.705,1.292-1.306c0.223-0.602,0.175-1.27-0.131-1.833l-0.003-0.007c-0.37-0.688-0.354-1.519,0.041-2.192
	c0.396-0.673,1.114-1.092,1.895-1.104h0.002c0.644-0.012,1.251-0.299,1.668-0.789c0.417-0.49,0.604-1.135,0.514-1.772l-0.001-0.007
	c-0.107-0.774,0.194-1.548,0.796-2.047c0.602-0.499,1.419-0.651,2.16-0.402l0.009,0.003c0.611,0.203,1.281,0.136,1.84-0.184
	c0.56-0.319,0.958-0.862,1.094-1.492c0.167-0.766,0.716-1.391,1.453-1.656c0.737-0.265,1.559-0.133,2.176,0.35l0.001,0.001
	c0.509,0.397,1.162,0.561,1.797,0.45s1.195-0.484,1.541-1.029l0.005-0.008c0.419-0.662,1.147-1.063,1.931-1.063
	c0.782,0,1.511,0.401,1.93,1.063l0.006,0.009c0.345,0.545,0.904,0.918,1.541,1.029c0.636,0.11,1.288-0.053,1.798-0.45l0.001-0.001
	c0.616-0.483,1.438-0.615,2.175-0.35c0.737,0.265,1.288,0.891,1.454,1.656v0.001c0.137,0.63,0.534,1.172,1.093,1.492
	c0.561,0.32,1.229,0.387,1.841,0.184l0.01-0.003c0.74-0.249,1.558-0.097,2.159,0.402c0.602,0.499,0.902,1.273,0.796,2.047v0.007
	c-0.091,0.637,0.097,1.283,0.514,1.772c0.418,0.49,1.024,0.777,1.668,0.789h0.002c0.781,0.012,1.5,0.431,1.894,1.104
	c0.396,0.674,0.411,1.504,0.042,2.192l-0.004,0.006c-0.307,0.563-0.354,1.231-0.131,1.833c0.223,0.601,0.692,1.077,1.293,1.306
	l0.004,0.002c0.729,0.277,1.261,0.918,1.397,1.686s-0.139,1.553-0.728,2.066l-0.002,0.001c-0.483,0.421-0.762,1.031-0.762,1.672
	c0,0.641,0.278,1.251,0.762,1.672l0.003,0.002c0.588,0.513,0.863,1.297,0.727,2.066c-0.137,0.768-0.668,1.408-1.397,1.686
	l-0.006,0.002c-0.599,0.229-1.069,0.705-1.292,1.306c-0.222,0.602-0.175,1.269,0.131,1.833l0.004,0.007
	c0.37,0.688,0.354,1.52-0.041,2.192c-0.396,0.674-1.113,1.092-1.895,1.104h-0.002c-0.644,0.012-1.251,0.299-1.668,0.788
	c-0.418,0.49-0.605,1.135-0.515,1.773v0.006c0.107,0.774-0.194,1.55-0.796,2.049c-0.602,0.498-1.418,0.649-2.159,0.401l-0.009-0.004
	c-0.612-0.202-1.28-0.135-1.84,0.184c-0.561,0.319-0.958,0.862-1.095,1.492c-0.166,0.766-0.716,1.393-1.454,1.657
	c-0.736,0.265-1.559,0.133-2.174-0.351l-0.002-0.002c-0.509-0.396-1.162-0.56-1.798-0.449c-0.637,0.11-1.195,0.485-1.541,1.03
	l-0.004,0.008c-0.419,0.662-1.148,1.063-1.931,1.063C39.217,54.793,38.488,54.393,38.069,53.73z"/>
<path fill="#E64C3C" d="M40,49.413c8.912,0,16.138-7.225,16.138-16.138c0-8.913-7.226-16.138-16.138-16.138
	c-8.913,0-16.138,7.225-16.138,16.138C23.862,42.188,31.087,49.413,40,49.413z"/>
<path fill="#F3D55B" d="M41.205,24.455l1.806,3.643c0.196,0.396,0.575,0.67,1.013,0.733l4.028,0.583
	c0.507,0.074,0.929,0.429,1.087,0.917s0.024,1.022-0.343,1.38l-2.908,2.82c-0.317,0.31-0.463,0.756-0.388,1.194l0.688,3.989
	c0.087,0.504-0.12,1.014-0.533,1.315c-0.414,0.302-0.962,0.343-1.415,0.104l-3.615-1.891c-0.391-0.204-0.857-0.204-1.248,0
	l-3.615,1.891c-0.454,0.238-1.002,0.197-1.416-0.104c-0.413-0.301-0.62-0.811-0.533-1.315l0.688-3.989
	c0.075-0.438-0.07-0.884-0.389-1.194l-2.907-2.82c-0.368-0.357-0.501-0.892-0.343-1.379c0.158-0.488,0.579-0.843,1.086-0.917
	l4.028-0.583c0.438-0.063,0.816-0.338,1.012-0.733l1.806-3.643c0.227-0.458,0.694-0.747,1.205-0.747
	C40.512,23.708,40.979,23.997,41.205,24.455z"/>
</svg>
