<?xml version="1.0" encoding="utf-8"?>
<!-- Generator: Adobe Illustrator 16.2.0, SVG Export Plug-In . SVG Version: 6.00 Build 0)  -->
<!DOCTYPE svg PUBLIC "-//W3C//DTD SVG 1.1//EN" "http://www.w3.org/Graphics/SVG/1.1/DTD/svg11.dtd">
<svg version="1.1" id="Слой_1" xmlns="http://www.w3.org/2000/svg" xmlns:xlink="http://www.w3.org/1999/xlink" x="0px" y="0px"
	 width="80px" height="81px" viewBox="0 0 80 81" enable-background="new 0 0 80 81" xml:space="preserve">
<path fill="#3F5C6C" d="M22.6,5.105C6.407,13.179-2.105,31.332,2.042,48.945C6.189,66.56,21.907,79.006,40,79.004
	c0.512,0,1.01-0.013,1.506-0.039c17.766-0.683,32.818-13.298,36.6-30.672c3.779-17.372-4.67-35.103-20.544-43.107"/>
<path fill="#4FBA6F" d="M40.86,60.179H23.944c-0.357,0.002-0.7-0.141-0.952-0.393c-0.253-0.253-0.394-0.597-0.393-0.952V2.349
	c-0.001-0.357,0.14-0.7,0.393-0.952c0.252-0.252,0.595-0.394,0.952-0.393h32.272c0.742,0.002,1.343,0.603,1.345,1.345v56.485
	c0,0.742-0.602,1.345-1.345,1.345H40.86L40.86,60.179z"/>
<path fill="#BBD1B5" d="M49.466,48.208c0.454-0.086,0.913-0.132,1.372-0.136V13.107c-3.712-0.001-6.722-3.011-6.723-6.724h-8.068
	c-0.001,3.713-3.011,6.723-6.724,6.724v34.965c3.713,0.002,6.722,3.012,6.724,6.726h5.352"/>
<path fill="#4FBA6F" d="M40.081,35.97c2.971,0,5.379-2.409,5.379-5.379c0-2.971-2.408-5.38-5.379-5.38s-5.379,2.409-5.379,5.38
	C34.702,33.561,37.11,35.97,40.081,35.97z"/>
<path fill="#4FBA6F" d="M40.081,19.831c1.485,0,2.689-1.205,2.689-2.689c0-1.485-1.204-2.689-2.689-2.689s-2.689,1.204-2.689,2.689
	C37.392,18.626,38.596,19.831,40.081,19.831z"/>
<path fill="#FDD7AD" d="M66.315,59.183l-3.711,12.601c-6.174,4.416-13.513,6.914-21.099,7.182
	c-2.245-6.657-1.358-14.699-0.646-18.787c0.282-1.668,0.538-2.69,0.538-2.69V44.039c0-2.228,1.807-4.035,4.034-4.035
	c2.229,0,4.034,1.807,4.034,4.035v12.104c0,2.229,1.807,4.035,4.035,4.035c2.228,0,4.033-1.807,4.033-4.035V34.625l0.027,0.027
	c0.472,0.673,8.108,11.471,9.266,20.482C66.995,56.505,66.82,57.896,66.315,59.183z"/>
</svg>
