<?xml version="1.0" encoding="utf-8"?>
<!-- Generator: Adobe Illustrator 16.2.0, SVG Export Plug-In . SVG Version: 6.00 Build 0)  -->
<!DOCTYPE svg PUBLIC "-//W3C//DTD SVG 1.1//EN" "http://www.w3.org/Graphics/SVG/1.1/DTD/svg11.dtd">
<svg version="1.1" id="Слой_1" xmlns="http://www.w3.org/2000/svg" xmlns:xlink="http://www.w3.org/1999/xlink" x="0px" y="0px"
	 width="80px" height="80px" viewBox="0 0 80 80" enable-background="new 0 0 80 80" xml:space="preserve">
<path fill="#3C97D3" d="M40,76.4c20.821,0,37.7-16.88,37.7-37.701S60.821,1,40,1S2.3,17.879,2.3,38.7S19.179,76.4,40,76.4z"/>
<path fill="#B1D3EF" d="M40,79C18.495,79,1,61.505,1,40c0-10.391,4.039-20.168,11.374-27.529c1.013-1.021,2.661-1.021,3.676-0.008
	c1.018,1.014,1.021,2.66,0.007,3.676C9.701,22.521,6.2,30.994,6.2,40c0,18.639,15.162,33.8,33.8,33.8
	c18.639,0,33.8-15.161,33.8-33.8c0-17.762-13.773-32.369-31.2-33.701v13.984c0,1.436-1.164,2.6-2.6,2.6s-2.6-1.165-2.6-2.6V3.6
	C37.4,2.165,38.564,1,40,1c21.505,0,39,17.495,39,39S61.505,79,40,79z"/>
<path fill="#B1D3EF" d="M27,27.157l16.828,12.172c1.656,1.204,1.845,3.604,0.396,5.052c-1.447,1.448-3.846,1.26-5.052-0.397
	L27,27.157z"/>
<path fill="#556080" d="M79,50.375H50.399v28.601H79V50.375z"/>
<path fill="#FFFFFF" d="M65.999,58.176H63.4v20.8h2.599V58.176z"/>
<path fill="#FFFFFF" d="M71.581,66.895L64.7,60.014l-6.882,6.881l-1.838-1.838l8.72-8.72l8.719,8.72L71.581,66.895z"/>
</svg>
